<?xml version="1.0" standalone="no"?>
<!DOCTYPE svg PUBLIC "-//W3C//DTD SVG 1.1//EN" "http://www.w3.org/Graphics/SVG/1.1/DTD/svg11.dtd" >
<svg xmlns="http://www.w3.org/2000/svg">
<metadata>Generated by IcoMoon</metadata>
<defs>
<font id="plentyshop-icons" horiz-adv-x="1024">
<font-face units-per-em="1024" ascent="960" descent="-64" />
<missing-glyph horiz-adv-x="1024" />
<glyph unicode="&#x20;" horiz-adv-x="512" d="" />
<glyph unicode="&#xe900;" glyph-name="Account-Add" horiz-adv-x="918" d="M918.295-64v0l-53.236 1.874-52.341 1.661v128.916h91.608c8.949-38.157 14.080-81.969 14.080-126.979 0-1.909-0.009-3.815-0.028-5.719l0.002 0.291zM106.471-63.276v0l-106.471 2.3c4.78 87.28 26.898 168.331 62.947 241.268l-1.619-3.624c70.204 146.147 217.058 245.246 387.058 245.246 8.085 0 16.119-0.224 24.093-0.667l-1.108 0.049c1.010 0.007 2.204 0.011 3.399 0.011 44.348 0 87.433-5.408 128.631-15.599l-3.668 0.768v-111.071c-36.765 12.31-79.098 19.413-123.090 19.413-1.853 0-3.704-0.013-5.552-0.038l0.28 0.003c-6.29 0.434-13.632 0.682-21.031 0.682-129 0-240.43-75.228-292.812-184.207l-0.844-1.948c-27.569-56.168-45.589-121.719-50.089-190.957l-0.080-1.544zM462.597 853.529c-109.867 0-198.931-89.065-198.931-198.931s89.065-198.931 198.931-198.931c109.867 0 198.931 89.065 198.931 198.931v0c-0.121 109.818-89.113 198.81-198.919 198.931h-0.012zM462.597 960c168.669 0 305.403-136.733 305.403-305.403s-136.733-305.403-305.403-305.403c-168.669 0-305.403 136.733-305.403 305.403v0c0 168.669 136.733 305.403 305.403 305.403v0zM910.246 121.729h-407.488v106.471h407.488zM653.266-28.779v407.488h106.471v-407.488z" />
<glyph unicode="&#xe901;" glyph-name="Account" horiz-adv-x="918" d="M462.597 853.529c-109.867 0-198.931-89.065-198.931-198.931s89.065-198.931 198.931-198.931c109.867 0 198.931 89.065 198.931 198.931v0c-0.121 109.818-89.113 198.81-198.919 198.931h-0.012zM462.597 960c168.669 0 305.403-136.733 305.403-305.403s-136.733-305.403-305.403-305.403c-168.669 0-305.403 136.733-305.403 305.403v0c0 168.669 136.733 305.403 305.403 305.403v0zM918.295-64l-53.491 1.874-53.108 1.746c0 1.746 4.259 177.935-101.616 286.877-57.197 54.982-135.049 88.844-220.809 88.844-6.372 0-12.7-0.187-18.979-0.556l0.867 0.041c-6.228 0.426-13.498 0.669-20.825 0.669-129.039 0-240.49-75.303-292.806-184.362l-0.843-1.951c-27.825-56.154-45.89-121.76-50.141-191.1l-0.071-1.443-106.471 2.3c4.788 87.266 26.905 168.302 62.947 241.226l-1.62-3.625c70.216 146.146 217.077 245.243 387.083 245.243 8.062 0 16.071-0.223 24.023-0.663l-1.105 0.049c5.949 0.301 12.918 0.472 19.926 0.472 115.462 0 220.059-46.519 296.070-121.838l-0.031 0.031c137.135-141.863 131.301-354.848 131.002-363.834z" />
<glyph unicode="&#xe902;" glyph-name="Arrow-bottom" d="M602.795 960v-921.6h-170.667v921.6zM966.656 477.969l-449.195-561.084-449.195 561.084 133.188 106.633 316.006-394.65 316.006 394.65z" />
<glyph unicode="&#xe903;" glyph-name="Arrow-left" d="M1043.115 357.205h-921.6v170.667h921.6zM561.084-6.656l-561.084 449.195 561.084 449.195 106.633-133.188-394.65-316.006 394.65-316.006z" />
<glyph unicode="&#xe904;" glyph-name="Arrow-right" d="M0 527.872h921.6v-170.667h-921.6zM482.031 891.733l561.084-449.195-561.084-449.195-106.633 133.188 394.65 316.006-394.65 316.006z" />
<glyph unicode="&#xe905;" glyph-name="Arrow-top" d="M432.128-83.115v921.6h170.667v-921.6zM68.267 398.916l449.195 561.084 449.195-561.084-133.188-106.633-316.006 394.65-316.006-394.65z" />
<glyph unicode="&#xe906;" glyph-name="Burger" d="M1024 405.333h-1024v106.667h1024zM1024 21.333h-1024v106.667h1024zM1024 789.333h-1024v106.667h1024z" />
<glyph unicode="&#xe907;" glyph-name="Caret-down" d="M525.131 136.523l-525.131 612.653h1050.263zM327.439 598.588l197.692-230.641 197.692 230.641z" />
<glyph unicode="&#xe908;" glyph-name="Cart-Add" d="M877.969-68.586h-13.713v111.304h5.654c1.031 2.715 1.627 5.855 1.627 9.133 0 0.671-0.025 1.337-0.074 1.996l0.005-0.088h111.304c0.155-2.237 0.243-4.848 0.243-7.48 0-59.39-44.846-108.305-102.521-114.73l-0.522-0.047zM641.647-68.586l-491.431 0.356c-59.928 7.412-105.862 58.016-105.862 119.349 0 2.228 0.061 4.443 0.18 6.641l-0.013-0.306c1.781 66.382 46.792 445.217 56.988 520.904 3.162 41.457 23.682 77.569 54.226 101.452l0.313 0.236c17.282 12.649 38.869 20.373 62.241 20.746l0.089 0.001h580.074c0.854 0.020 1.859 0.032 2.867 0.032 70.361 0 127.662-55.915 129.892-125.734l0.005-0.205c2.093-29.651 10.819-110.058 20.035-195.139l1.38-12.822c3.295-30.319 6.634-60.861 9.795-90.379h-98.215v136.548h-28.538c-8.326 76.711-13.757 129.113-15.494 154.001-1.024 14.559-5.61 17.141-8.103 18.566-3.874 2.067-8.42 3.426-13.246 3.778l-0.111 0.006h-577.759c-0.223 0-6.144-5.476-8.904-25.912-11.175-82.989-54.495-451.807-56.053-508.973 0-7.925 1.38-8.904 2.671-9.884 1.057-0.648 2.301-1.289 3.592-1.841l0.193-0.073h479.366v-111.304zM639.688 460.689v0 0.312c0 20.925 0 41.539 0 61.529 0.312 131.74 0.579 256.178-45.19 302.080-17.984 15.211-41.437 24.457-67.049 24.457-2.899 0-5.771-0.118-8.61-0.351l0.373 0.025c-2.772 0.267-5.993 0.419-9.249 0.419-51.487 0-94.1-38-101.321-87.483l-0.066-0.554c-14.241-65.724-22.397-141.227-22.397-218.635 0-20.692 0.583-41.248 1.733-61.653l-0.127 2.828v-22.662h-111.304v22.528c-1.078 18.556-1.692 40.26-1.692 62.108 0 87.764 9.912 173.213 28.676 255.289l-1.473-7.659c12.649 47.685 38.26 88.249 72.816 118.972l0.244 0.213c36.882 29.745 84.318 47.747 135.959 47.747 2.869 0 5.725-0.056 8.567-0.166l-0.409 0.013c3.176 0.173 6.894 0.271 10.634 0.271 55.604 0 106.132-21.734 143.551-57.171l-0.096 0.090c78.403-78.581 78.091-218.691 77.735-380.973 0-19.812 0-40.292 0-60.861v0s0 0 0 0l-55.697-0.401zM966.255 109.546h-425.984v111.304h425.984zM697.611-47.794v425.984h111.304v-425.984z" />
<glyph unicode="&#xe909;" glyph-name="Cart" d="M218.335 700.75h580.074c0.827 0.019 1.802 0.030 2.779 0.030 70.394 0 127.724-55.929 129.979-125.775l0.005-0.207c2.182-31.165 11.531-116.959 21.415-207.961 14.425-132.675 29.384-269.846 30.275-309.56 0.31-3.179 0.487-6.872 0.487-10.607 0-59.522-44.925-108.552-102.718-115.030l-0.526-0.048-729.978 0.356c-59.908 7.432-105.817 58.027-105.817 119.344 0 2.23 0.061 4.447 0.181 6.647l-0.013-0.306c1.736 65.447 46.748 445.217 56.943 520.904 3.145 41.448 23.671 77.551 54.225 101.407l0.314 0.236c17.311 12.594 38.918 20.258 62.3 20.568l0.075 0.001zM798.23 589.446h-577.447c-5.322-7.174-8.62-16.132-8.903-25.845l-0.002-0.067c-11.175-83.167-54.495-452.207-56.008-509.017 0-7.925 1.38-8.904 2.671-9.839 1.055-0.655 2.297-1.31 3.585-1.88l0.199-0.079h707.584c1.059 2.796 1.671 6.029 1.671 9.404 0 0.874-0.041 1.739-0.121 2.592l0.008-0.109c-0.801 34.994-16.785 181.96-29.651 300.077-10.463 96.122-19.501 179.111-21.816 212.28-1.024 14.514-5.654 17.141-8.103 18.566-3.877 2.048-8.424 3.391-13.247 3.734l-0.109 0.006zM639.688 460.689v0 0.312c0 20.925 0 41.539 0 61.529 0.312 131.74 0.579 256.178-45.19 302.080-17.984 15.211-41.437 24.457-67.049 24.457-2.899 0-5.771-0.118-8.61-0.351l0.373 0.025c-2.772 0.267-5.993 0.419-9.249 0.419-51.487 0-94.1-38-101.321-87.483l-0.066-0.554c-14.241-65.724-22.397-141.227-22.397-218.635 0-20.692 0.583-41.248 1.733-61.653l-0.127 2.828v-22.662h-111.304v22.528c-1.078 18.556-1.692 40.26-1.692 62.108 0 87.764 9.912 173.213 28.676 255.289l-1.473-7.659c12.649 47.685 38.26 88.249 72.816 118.972l0.244 0.213c36.882 29.745 84.318 47.747 135.959 47.747 2.869 0 5.725-0.056 8.567-0.166l-0.409 0.013c3.176 0.173 6.894 0.271 10.634 0.271 55.604 0 106.132-21.734 143.551-57.171l-0.096 0.090c78.403-78.581 78.091-218.691 77.735-380.973 0-19.812 0-40.292 0-60.861v0s0 0 0 0l-55.697-0.401z" />
<glyph unicode="&#xe90a;" glyph-name="Close" d="M927.234-64.035l-927.223 927.223 96.791 96.791 927.223-927.223zM0.011 32.795l927.223 927.223 96.791-96.791-927.223-927.223z" />
<glyph unicode="&#xe90b;" glyph-name="Delete" horiz-adv-x="879" d="M879.439 660.625h-879.397v105.921h879.397zM552.017-64c-65.925 0-142.273 0.212-209.85 0.424-60.883 0-113.505 0.254-143.12 0.297h-0.339c-0.977-0.025-2.127-0.040-3.281-0.040-56.086 0-104.218 34.056-124.845 82.618l-0.335 0.888c-9.581 21.552-15.516 46.625-16.346 72.986l-0.008 0.311v611.036h105.921v-610.104c0.703-12.106 3.597-23.367 8.29-33.633l-0.24 0.585c4.397-11.221 15.13-19.023 27.685-19.023 1.113 0 2.211 0.061 3.292 0.181l-0.133-0.012c29.87 0 82.618 0 143.671-0.297 127.105-0.381 285.351-0.89 345.217 0.297 0.906-0.115 1.955-0.18 3.020-0.18 6.925 0 13.203 2.769 17.787 7.26l-0.004-0.004c7.707 11.181 12.31 25.019 12.31 39.932 0 0.633-0.008 1.264-0.025 1.893l0.002-0.093v613.366h105.921v-610.104c0.050-1.559 0.078-3.392 0.078-5.232 0-42.877-15.471-82.141-41.134-112.514l0.213 0.258c-23.957-25.034-57.636-40.594-94.95-40.594-0.401 0-0.802 0.002-1.203 0.005h0.061c-28.683-0.297-79.059-0.508-137.655-0.508zM344.963 156.273h-105.921v381.315h105.921zM493.252 156.273h-105.921v381.315h105.921zM641.541 156.273h-105.921v381.315h105.921zM530.112 769.978c-1.644 46.817-39.992 84.145-87.059 84.145-0.971 0-1.939-0.016-2.902-0.047l0.14 0.004c-0.823 0.028-1.791 0.044-2.762 0.044-47.067 0-85.415-37.328-87.055-83.995l-0.004-0.15h179.642zM636.033 664.057h-391.483v105.921c1.754 105.328 87.55 190.040 193.132 190.040 0.918 0 1.834-0.006 2.748-0.019l-0.138 0.002c0.776 0.011 1.692 0.018 2.61 0.018 105.582 0 191.378-84.711 193.13-189.875l0.002-0.164z" />
<glyph unicode="&#xe90c;" glyph-name="Double-Caret" d="M522.147 960l405.783-473.414h-811.567zM674.909 602.95l-152.762 178.223-152.762-178.223zM522.147-56.646l-405.783 473.414h811.567zM369.385 300.404l152.762-178.223 152.762 178.223z" />
<glyph unicode="&#xe90d;" glyph-name="Edit" d="M0-56.363l100.48 342.059 9.643 9.643 595.541 594.731c31.285 29.262 73.143 47.561 119.262 48.594l0.204 0.004c44.774-0.706 85.347-18.126 115.876-46.275l-0.121 0.11c34.376-27.244 57.491-67.401 61.983-113.027l0.054-0.68c0.118-2.372 0.185-5.152 0.185-7.947 0-41.435-14.766-79.421-39.323-108.984l0.226 0.28-1.237-1.451-632.576-632.789-14.165-3.584zM195.115 229.504l-39.979-136.192 120.32 30.72 608.341 608.555c5.772 7.832 10.015 17.161 12.083 27.281l0.077 0.453c1.963 11.264 1.493 28.843-24.619 51.2-11.974 11.802-28.118 19.4-46.025 20.387l-0.183 0.008c-17.178-1.015-32.641-7.621-44.775-18.006l0.103 0.086zM777.984 544.555l-170.667 170.667 75.435 75.435 170.667-170.667z" />
<glyph unicode="&#xe90e;" glyph-name="Filter" d="M999.668 716.19h-195.048v121.905h195.048v-121.905zM707.096 716.19h-707.048v121.905h707.048v-121.905zM707.096 618.667h-121.905v316.952h121.905zM999.668 399.238h-609.524v121.905h609.524v-121.905zM292.62 399.238h-292.571v121.905h292.571v-121.905zM292.62 301.714h-121.905v316.952h121.905zM999.668 82.334h-390.095v121.905h390.095v-121.905zM512.049 82.334h-512v121.905h512v-121.905zM512.049-15.238h-121.905v316.952h121.905z" />
<glyph unicode="&#xe90f;" glyph-name="Gift" horiz-adv-x="989" d="M206.486 430.707c-7.127 0-12.905-5.778-12.905-12.905v0-361.351c0-7.127 5.778-12.905 12.905-12.905v0h576.441c7.127 0 12.905 5.778 12.905 12.905v0 361.351c0 7.127-5.778 12.905-12.905 12.905v0h-576.441zM206.486 538.252h576.441c66.523 0 120.45-53.927 120.45-120.45v-361.351c0-66.523-53.927-120.45-120.45-120.45v0h-576.441c-66.523 0-120.45 53.927-120.45 120.45v0 361.351c0 66.523 53.927 120.45 120.45 120.45v0zM120.45 667.306c-7.127 0-12.905-5.778-12.905-12.905v0-103.243c0-7.127 5.778-12.905 12.905-12.905h748.513c7.127 0 12.905 5.778 12.905 12.905v0 103.243c0 7.127-5.778 12.905-12.905 12.905h-748.513zM120.45 774.851h748.513c66.523 0 120.45-53.927 120.45-120.45v0-103.243c0-66.523-53.927-120.45-120.45-120.45h-748.513c-66.523 0-120.45 53.927-120.45 120.45v0 103.243c0 66.523 53.927 120.45 120.45 120.45v0zM548.479-42.491h-107.545v774.324h107.545zM540.521 667.521v88.187h-99.587c-0.13 3.433-0.204 7.465-0.204 11.514 0 38.272 6.614 74.998 18.762 109.099l-0.706-2.271c16.552 49.268 61.611 84.429 115.102 86.032l0.186 0.004c3.062 0.241 6.629 0.378 10.228 0.378 37.5 0 71.517-14.911 96.447-39.127l-0.033 0.032c26.334-27.707 42.533-65.264 42.533-106.605 0-3.070-0.089-6.119-0.265-9.144l0.019 0.418c-2.237-66.764-60.311-138.518-182.482-138.518zM581.087 852.498h-2.925c-6.109-0.215-12.389-0.473-19.272-17.895-6.145-17.642-9.783-37.981-9.979-59.144l-0.001-0.092c42.674 1.936 66.119 18.541 66.635 34.414 0.117 1.288 0.184 2.786 0.184 4.3 0 11.831-4.089 22.707-10.931 31.292l0.078-0.102c-5.261 4.605-12.196 7.414-19.787 7.414-1.426 0-2.83-0.099-4.203-0.291l0.158 0.018zM448.936 667.521c-122.214 0-180.245 71.711-182.482 138.346-0.157 2.608-0.246 5.657-0.246 8.726 0 41.341 16.199 78.898 42.595 106.671l-0.062-0.066c24.606 23.988 58.272 38.783 95.394 38.783 1.505 0 3.003-0.024 4.496-0.073l-0.218 0.006c2.28 0 4.603 0 7.012 0 53.66-1.626 98.698-36.781 114.987-85.153l0.258-0.883c11.442-31.83 18.056-68.557 18.056-106.828 0-4.049-0.074-8.081-0.221-12.095l0.017 0.58h-99.587zM408.413 852.498c-1.114 0.146-2.402 0.229-3.71 0.229-7.728 0-14.776-2.911-20.107-7.696l0.028 0.025c-6.764-8.483-10.853-19.359-10.853-31.19 0-1.514 0.067-3.012 0.198-4.491l-0.014 0.191c0.516-15.702 23.961-32.307 66.635-34.414-0.198 21.255-3.836 41.594-10.383 60.579l0.403-1.343c-6.84 17.207-13.164 17.637-19.229 17.895z" />
<glyph unicode="&#xe910;" glyph-name="Home" d="M53.376 357.248c-0.028 0-0.062 0-0.095 0-16.614 0-31.451 7.609-41.216 19.532l-0.075 0.094c-7.473 9.107-12.003 20.879-12.003 33.708 0 16.633 7.614 31.487 19.546 41.268l0.094 0.075 492.373 401.408 489.429-401.493c11.952-9.855 19.512-24.664 19.512-41.238 0-12.877-4.563-24.688-12.161-33.904l0.073 0.091c-9.855-11.937-24.654-19.487-41.217-19.487-12.886 0-24.705 4.57-33.924 12.178l0.091-0.073-421.973 346.155-424.789-346.283c-9.076-7.49-20.826-12.032-33.637-12.032-0.009 0-0.019 0-0.028 0h0.001zM893.44 46.933h-772.267v480.043h106.667v-373.376h128v166.4h163.797v-166.4h267.093v547.371h106.667z" />
<glyph unicode="&#xe911;" glyph-name="Lock" horiz-adv-x="788" d="M129.62 491.293c-11.931 0-21.603-9.672-21.603-21.603v0-404.070c0-11.931 9.672-21.603 21.603-21.603v0h528.462c11.931 0 21.603 9.672 21.603 21.603v0 404.070c0 11.931-9.672 21.603-21.603 21.603v0h-528.462zM129.62 599.31h528.462c71.587 0 129.62-58.033 129.62-129.62v0-404.070c0-71.587-58.033-129.62-129.62-129.62v0h-528.462c-71.587 0-129.62 58.033-129.62 129.62v0 404.070c0 71.587 58.033 129.62 129.62 129.62v0zM392.62 851.983c-99.886-0.123-180.827-81.063-180.95-180.938v-84.654h361.9v84.642c-0.123 99.886-81.063 180.827-180.938 180.95h-0.012zM392.62 960c159.592 0 288.967-129.375 288.967-288.967v0-192.659h-577.934v192.659c0 159.592 129.375 288.967 288.967 288.967v0z" />
<glyph unicode="&#xe912;" glyph-name="Logout" d="M469.376 0h-341.333c-70.692 0-128 57.308-128 128v0 640c0 70.692 57.308 128 128 128v0h341.333c70.692 0 128-57.308 128-128v0-106.667h-106.667v106.667c0 11.782-9.551 21.333-21.333 21.333v0h-341.333c-11.782 0-21.333-9.551-21.333-21.333v0-640c0-11.782 9.551-21.333 21.333-21.333v0h341.333c11.782 0 21.333 9.551 21.333 21.333v0 106.667h106.667v-106.667c0-70.692-57.308-128-128-128v0zM934.699 394.667h-721.579v106.667h721.579zM737.365 230.4l-66.645 83.285 169.771 135.851-169.771 136.021 66.645 83.243 273.792-219.264z" />
<glyph unicode="&#xe913;" glyph-name="Long-Arrow-bottom" horiz-adv-x="567" d="M337.171 960v-947.351h-107.653v947.351zM566.688 289.922l-283.516-353.922-283.172 353.922 84.056 67.262 199.116-248.938 199.331 248.938z" />
<glyph unicode="&#xe914;" glyph-name="Long-Arrow-left" d="M1014.613 391.253h-938.667v106.667h938.667zM350.677 163.84l-350.677 280.747 350.677 280.747 66.645-83.243-246.656-197.504 246.656-197.504z" />
<glyph unicode="&#xe915;" glyph-name="Long-Arrow-right" d="M938.667 391.253h-938.667v106.667h938.667zM663.936 163.84l-66.645 83.243 246.656 197.504-246.656 197.504 66.645 83.243 350.677-280.747z" />
<glyph unicode="&#xe916;" glyph-name="Long-Arrow-top" horiz-adv-x="567" d="M229.517-64v947.351h107.653v-947.351zM0 606.078l283.344 353.922 283.344-353.922-84.013-67.262-199.331 248.938-199.331-248.938z" />
<glyph unicode="&#xe917;" glyph-name="Mail" d="M128 746.667c-11.782 0-21.333-9.551-21.333-21.333v0-554.667c0-11.782 9.551-21.333 21.333-21.333v0h768c11.782 0 21.333 9.551 21.333 21.333v0 554.667c0 11.782-9.551 21.333-21.333 21.333v0h-768zM128 853.333h768c70.692 0 128-57.308 128-128v0-554.667c0-70.692-57.308-128-128-128v0h-768c-70.692 0-128 57.308-128 128v0 554.667c0 70.692 57.308 128 128 128v0zM515.371 394.24c-0.018 0-0.040 0-0.061 0-11.856 0-22.807 3.875-31.656 10.427l0.144-0.102-425.6 312.32 63.104 86.016 393.6-288.853 382.165 288.427 64.256-85.333-413.867-312.32c-8.761-6.607-19.832-10.582-31.83-10.582-0.090 0-0.18 0-0.269 0.001h0.014z" />
<glyph unicode="&#xe918;" glyph-name="Minus" d="M1024 391.111h-1024v142.222h1024z" />
<glyph unicode="&#xe919;" glyph-name="Plus" d="M1024 383.842h-1024v128.273h1024zM447.885-64v1024h128.273v-1024z" />
<glyph unicode="&#xe91a;" glyph-name="Caret-left" d="M210.824 434.869l612.653 525.131v-1050.263zM672.888 632.561l-230.641-197.692 230.641-197.692z" />
<glyph unicode="&#xe91b;" glyph-name="Caret-right" d="M823.477 434.869l-612.653-525.131v1050.263zM361.412 237.176l230.641 197.692-230.641 197.692z" />
<glyph unicode="&#xe91c;" glyph-name="Caret-up" d="M525.131 749.176l-525.131-612.653h1050.263zM327.439 287.112l197.692 230.641 197.692-230.641z" />
<glyph unicode="&#xe91d;" glyph-name="Check" d="M440.266-4.824l-440.266 342.178 82.675 106.388 332.045-258.048 519.653 693.464 107.789-80.842z" />
<glyph unicode="&#xe91e;" glyph-name="Print" horiz-adv-x="1166" d="M253.643 113.535h-132.095c-67.102 0-121.5 54.397-121.5 121.5v0 340.199c0 67.102 54.397 121.5 121.5 121.5v0h923.398c67.102 0 121.5-54.397 121.5-121.5v0-340.199c0-67.102-54.397-121.5-121.5-121.5v0h-132.095v121.5h132.095v340.199h-923.398v-340.199h132.095v-121.5zM375.094 838.5v-137.343h416.258v137.343h-416.258zM253.594 960h659.258v-380.343h-659.258zM375.094 283.635v-226.087h416.258v226.087h-416.258zM253.594 405.135h659.258v-469.086h-659.258zM950.711 544.568c34.893 0 63.18-28.287 63.18-63.18s-28.287-63.18-63.18-63.18c-34.893 0-63.18 28.287-63.18 63.18v0c0 34.893 28.287 63.18 63.18 63.18v0z" />
<glyph unicode="&#xe920;" glyph-name="Privacy" d="M516.452 960l472.554-106.541-2.76-47.149c-0.312-5.298-7.791-130.983-24.932-272.785-35.885-296.915-77.824-358.489-91.626-378.702-53.913-67.673-121.308-122.207-198.377-160.062l-3.396-1.507c-35.173-19.849-78.29-40.751-122.675-59.217l-8.442-3.113-20.569-8.103-20.525 8.237c-52.219 21.701-94.761 42.588-135.905 65.671l6.481-3.341c-79.993 39.876-147.238 93.927-200.97 159.48l-0.847 1.065c-14.425 20.302-58.323 82.054-93.496 379.681-16.829 141.891-23.597 267.709-23.908 273.007l-2.493 46.926zM871.869 765.796l-355.417 80.139-355.328-80.139c3.428-49.419 9.973-132.185 20.346-219.581 28.806-242.733 61.173-310.049 73.728-327.769 52.046-73.238 191.443-144.696 261.432-175.46 70.923 30.586 211.478 101.777 261.075 174.57 12.154 17.809 43.631 85.66 73.060 329.461 10.552 87.085 17.453 169.45 21.103 218.78zM495.928 209.72l-221.718 172.344 68.296 87.886 132.274-102.801 223.054 297.672 89.043-66.783z" />
<glyph unicode="&#xe921;" glyph-name="Search" horiz-adv-x="1023" d="M449.893 855.368c-190.682 0-345.261-154.579-345.261-345.261s154.579-345.261 345.261-345.261c190.682 0 345.261 154.579 345.261 345.261v0c-0.219 190.594-154.667 345.042-345.24 345.261h-0.021zM449.893 960c248.469 0 449.893-201.424 449.893-449.893s-201.424-449.893-449.893-449.893c-248.469 0-449.893 201.424-449.893 449.893v0c0 248.469 201.424 449.893 449.893 449.893v0zM948.247-64.043l-257.082 248.512 74.468 77.125 257.082-248.512z" />
<glyph unicode="&#xe922;" glyph-name="Send" d="M1016.235 938.667l-377.941-986.112-190.933 436.139-447.36 163.755zM631.851 233.472l199.595 520.789-526.165-199.979 221.653-81.067zM523.733 385.536l-64.896 84.608 6.912 5.333 406.101 392.533 74.155-76.8-410.496-396.8z" />
<glyph unicode="&#xe923;" glyph-name="Subscribe" horiz-adv-x="926" d="M464.838 853.347c-0.331 0.002-0.723 0.003-1.115 0.003-131.524 0-238.255-106.15-239.196-237.451l-0.001-0.090v-297.691l-45.562-31.825c-17.065-11.74-32.008-24.109-45.775-37.668l0.042 0.041h660.397c-13.877 14.25-28.814 27.306-44.741 39.101l-0.992 0.702-42.661 31.996v295.344c-0.941 131.392-107.673 237.541-239.196 237.541-0.422 0-0.844-0.001-1.265-0.003h0.065zM464.838 960c0.419 0.002 0.915 0.003 1.411 0.003 190.367 0 344.78-153.935 345.554-344.12v-242.22c180.457-135.407 108.488-231.694 45.306-231.694-91.21-0.341-701.31 0-790.173 0-69.922 0-125.595 108.317 50.895 231.694v242.146c0.774 190.259 155.187 344.195 345.554 344.195 0.511 0 1.021-0.001 1.532-0.003h-0.079zM356.265 141.841c2.16-55.288 47.503-99.291 103.124-99.291 1.241 0 2.477 0.022 3.708 0.065l-0.178-0.005c1.142-0.045 2.482-0.071 3.828-0.071 55.624 0 100.97 44.008 103.118 99.106l0.006 0.195h-213.605zM249.611 248.494h426.912v-106.653c-2.283-114.205-95.402-205.911-209.94-205.911-1.184 0-2.366 0.010-3.545 0.029l0.178-0.002c-1.091-0.020-2.377-0.032-3.666-0.032-114.54 0-207.659 91.709-209.936 205.703l-0.003 0.213z" />
<glyph unicode="&#xe924;" glyph-name="View" horiz-adv-x="1477" d="M738.639 806.117c-174.586-2.702-330.972-78.412-440.369-197.866l-0.414-0.458c-46.055-46.792-87.366-98.511-122.993-154.216l-2.268-3.791c32.159-60.329 68.963-112.369 111.388-159.225l-0.592 0.664c109.269-123.766 268.298-201.417 445.463-201.417 3.354 0 6.701 0.028 10.042 0.083l-0.504-0.007c2.838-0.049 6.185-0.077 9.538-0.077 177.166 0 336.195 77.652 444.91 200.778l0.554 0.64c41.829 46.211 78.632 98.271 108.753 154.451l2.043 4.172c-36.365 57.023-75.633 106.62-119.365 151.876l0.26-0.27c-110.433 123.486-269.266 201.709-446.417 204.658l-0.521 0.007zM738.147 960c501.474 0 738.639-502.705 738.639-502.705s-185.152-521.233-738.639-521.233-738.639 521.233-738.639 521.233 237.657 502.705 739.132 502.705zM738.639 323.108c68.874 0 124.707 55.833 124.707 124.707s-55.833 124.707-124.707 124.707c-68.874 0-124.707-55.833-124.707-124.707v0c0.070-68.846 55.861-124.637 124.7-124.707h0.007zM738.639 169.225c-153.861 0-278.59 124.729-278.59 278.59s124.729 278.59 278.59 278.59c153.861 0 278.59-124.729 278.59-278.59v0c0-153.861-124.729-278.59-278.59-278.59v0z" />
<glyph unicode="&#xe925;" glyph-name="View-disabled" horiz-adv-x="1314" d="M656.987-37.773c-1.090-0.006-2.38-0.010-3.67-0.010-76.268 0-149.671 12.263-218.346 34.925l4.919-1.406 112.518 112.518c31.167-5.817 67.025-9.145 103.66-9.145 0.323 0 0.646 0 0.969 0.001h-0.050c2.589-0.046 5.643-0.072 8.703-0.072 157.517 0 298.905 69.056 395.541 178.545l0.494 0.571c37.345 41.090 70.189 87.382 97.071 137.356l1.813 3.689c-32.434 50.725-67.376 94.857-106.251 135.171l0.248-0.259c-9.144 9.472-18.671 18.835-28.417 27.815l96.859 96.859c75.869-71.695 139.635-155.166 188.593-247.679l2.496-5.173c-36.595-89.213-85.11-165.93-144.634-232.61l0.687 0.783c-56.406-64.319-123.509-117.618-198.808-157.506l-3.78-1.826c-88.449-45.753-193.071-72.581-303.959-72.581-2.341 0-4.679 0.012-7.014 0.036l0.356-0.003zM238.725 104.148v0c-104.010 84.394-185.499 192.537-236.728 316.376l-1.942 5.301c44.954 85.591 98.623 159.174 161.419 223.846l-0.225-0.232c58.211 60.95 125.846 112.251 200.694 151.706l4.249 2.042c84.288 44.033 184.099 69.866 289.944 69.866 0.319 0 0.637 0 0.956-0.001h-0.049c0.284 0 0.62 0.001 0.957 0.001 103.176 0 200.616-24.555 286.797-68.14l-3.637 1.668-104.032-104.032c-53.249 21.073-114.937 33.291-179.478 33.291-0.31 0-0.619 0-0.928-0.001h0.049c-155.254-2.357-294.334-69.671-391.612-175.899l-0.368-0.407c-40.984-41.627-77.749-87.632-109.461-137.182l-2.017-3.37c28.641-53.657 61.376-99.946 99.091-141.645l-0.535 0.6c25.366-28.033 52.864-53.186 82.559-75.58l1.488-1.075-97.516-97.571zM656.987 169.524c-14.141 0.011-27.999 1.185-41.495 3.433l1.47-0.202 284.718 284.718c2.049-11.995 3.224-25.816 3.23-39.909v-0.006c-0.062-136.922-111.011-247.909-247.912-248.033h-0.012zM437.207 302.739v0c-17.663 33.246-28.034 72.691-28.034 114.559 0 0.014 0 0.028 0 0.042v-0.002c0.187 136.808 111.057 247.659 247.854 247.814h0.015c41.906-0.048 81.376-10.434 116.010-28.742l-1.356 0.654-109.069-109.069h-5.475c-61.225-0.031-110.861-49.609-110.985-110.809v-0.012q0-2.902 0-5.749l-108.85-108.85zM115.837 32.77l927.223 927.223 96.791-96.791-927.223-927.223z" />
</font>
</defs>
</svg>
